<mxfile host="app.diagrams.net" modified="2024-07-12T02:22:29.251Z" agent="Mozilla/5.0 (Windows NT 10.0; Win64; x64) AppleWebKit/537.36 (KHTML, like Gecko) Chrome/126.0.0.0 Safari/537.36 Edg/126.0.0.0" etag="4WQQyww1EYXZ2QKTcQK1" version="24.6.5" type="github">
  <diagram name="第 1 页" id="balPf9-gQRZTRcDFr3VB">
    <mxGraphModel dx="1040" dy="583" grid="1" gridSize="10" guides="1" tooltips="1" connect="1" arrows="1" fold="1" page="1" pageScale="1" pageWidth="827" pageHeight="1169" math="0" shadow="0">
      <root>
        <mxCell id="0" />
        <mxCell id="1" parent="0" />
        <mxCell id="uWTGyWkujZBzGQfHW1x2-1" value="" style="whiteSpace=wrap;html=1;aspect=fixed;" vertex="1" parent="1">
          <mxGeometry x="180" y="220" width="200" height="200" as="geometry" />
        </mxCell>
        <mxCell id="uWTGyWkujZBzGQfHW1x2-4" value="" style="rounded=0;whiteSpace=wrap;html=1;" vertex="1" parent="1">
          <mxGeometry x="290" y="270" width="90" height="110" as="geometry" />
        </mxCell>
        <mxCell id="uWTGyWkujZBzGQfHW1x2-5" value="TDMA(2)" style="rounded=0;whiteSpace=wrap;html=1;" vertex="1" parent="1">
          <mxGeometry x="310" y="285" width="60" height="15" as="geometry" />
        </mxCell>
        <mxCell id="uWTGyWkujZBzGQfHW1x2-6" value="TDMB(1)" style="rounded=0;whiteSpace=wrap;html=1;" vertex="1" parent="1">
          <mxGeometry x="310" y="300" width="60" height="15" as="geometry" />
        </mxCell>
        <mxCell id="uWTGyWkujZBzGQfHW1x2-7" value="TDMC(0)" style="rounded=0;whiteSpace=wrap;html=1;" vertex="1" parent="1">
          <mxGeometry x="310" y="360" width="60" height="15" as="geometry" />
        </mxCell>
        <mxCell id="uWTGyWkujZBzGQfHW1x2-8" value="TDM_D0" style="rounded=0;whiteSpace=wrap;html=1;fontSize=7;fillColor=#dae8fc;strokeColor=#6c8ebf;" vertex="1" parent="1">
          <mxGeometry x="450" y="315" width="40" height="10" as="geometry" />
        </mxCell>
        <mxCell id="uWTGyWkujZBzGQfHW1x2-14" value="TDM_D1" style="rounded=0;whiteSpace=wrap;html=1;fontSize=7;fillColor=#dae8fc;strokeColor=#6c8ebf;" vertex="1" parent="1">
          <mxGeometry x="450" y="325" width="40" height="10" as="geometry" />
        </mxCell>
        <mxCell id="uWTGyWkujZBzGQfHW1x2-15" value="TDM_D2" style="rounded=0;whiteSpace=wrap;html=1;fontSize=7;fillColor=#dae8fc;strokeColor=#6c8ebf;" vertex="1" parent="1">
          <mxGeometry x="450" y="335" width="40" height="10" as="geometry" />
        </mxCell>
        <mxCell id="uWTGyWkujZBzGQfHW1x2-16" value="TDM_D3" style="rounded=0;whiteSpace=wrap;html=1;fontSize=7;fillColor=#dae8fc;strokeColor=#6c8ebf;" vertex="1" parent="1">
          <mxGeometry x="450" y="345" width="40" height="10" as="geometry" />
        </mxCell>
        <mxCell id="uWTGyWkujZBzGQfHW1x2-17" value="TDM_D4" style="rounded=0;whiteSpace=wrap;html=1;fontSize=7;fillColor=#dae8fc;strokeColor=#6c8ebf;" vertex="1" parent="1">
          <mxGeometry x="450" y="355" width="40" height="10" as="geometry" />
        </mxCell>
        <mxCell id="uWTGyWkujZBzGQfHW1x2-18" value="TDM_D5" style="rounded=0;whiteSpace=wrap;html=1;fontSize=7;fillColor=#dae8fc;strokeColor=#6c8ebf;" vertex="1" parent="1">
          <mxGeometry x="450" y="365" width="40" height="10" as="geometry" />
        </mxCell>
        <mxCell id="uWTGyWkujZBzGQfHW1x2-19" value="TDM_D6" style="rounded=0;whiteSpace=wrap;html=1;fontSize=7;fillColor=#dae8fc;strokeColor=#6c8ebf;" vertex="1" parent="1">
          <mxGeometry x="450" y="375" width="40" height="10" as="geometry" />
        </mxCell>
        <mxCell id="uWTGyWkujZBzGQfHW1x2-20" value="TDM_D7" style="rounded=0;whiteSpace=wrap;html=1;fontSize=7;fillColor=#dae8fc;strokeColor=#6c8ebf;" vertex="1" parent="1">
          <mxGeometry x="450" y="385" width="40" height="10" as="geometry" />
        </mxCell>
        <mxCell id="uWTGyWkujZBzGQfHW1x2-21" value="TDM_D8" style="rounded=0;whiteSpace=wrap;html=1;fontSize=7;fillColor=#dae8fc;strokeColor=#6c8ebf;" vertex="1" parent="1">
          <mxGeometry x="450" y="395" width="40" height="10" as="geometry" />
        </mxCell>
        <mxCell id="uWTGyWkujZBzGQfHW1x2-22" value="TDM_D9" style="rounded=0;whiteSpace=wrap;html=1;fontSize=7;fillColor=#dae8fc;strokeColor=#6c8ebf;" vertex="1" parent="1">
          <mxGeometry x="450" y="405" width="40" height="10" as="geometry" />
        </mxCell>
        <mxCell id="uWTGyWkujZBzGQfHW1x2-23" value="" style="html=1;shadow=0;dashed=0;align=center;verticalAlign=middle;shape=mxgraph.arrows2.twoWayArrow;dy=0.65;dx=22;" vertex="1" parent="1">
          <mxGeometry x="380" y="370" width="70" height="10" as="geometry" />
        </mxCell>
        <mxCell id="uWTGyWkujZBzGQfHW1x2-24" value="mclk" style="rounded=0;whiteSpace=wrap;html=1;fontSize=7;fillColor=#f8cecc;strokeColor=#b85450;" vertex="1" parent="1">
          <mxGeometry x="450" y="270" width="40" height="10" as="geometry" />
        </mxCell>
        <mxCell id="uWTGyWkujZBzGQfHW1x2-25" value="sclk/bclk" style="rounded=0;whiteSpace=wrap;html=1;fontSize=7;fillColor=#f8cecc;strokeColor=#b85450;" vertex="1" parent="1">
          <mxGeometry x="450" y="280" width="40" height="10" as="geometry" />
        </mxCell>
        <mxCell id="uWTGyWkujZBzGQfHW1x2-26" value="fsck/lrclk" style="rounded=0;whiteSpace=wrap;html=1;fontSize=7;fillColor=#f8cecc;strokeColor=#b85450;" vertex="1" parent="1">
          <mxGeometry x="450" y="290" width="40" height="10" as="geometry" />
        </mxCell>
        <mxCell id="uWTGyWkujZBzGQfHW1x2-32" value="" style="html=1;shadow=0;dashed=0;align=center;verticalAlign=middle;shape=mxgraph.arrows2.twoWayArrow;dy=0.65;dx=22;" vertex="1" parent="1">
          <mxGeometry x="379" y="280" width="70" height="10" as="geometry" />
        </mxCell>
        <mxCell id="uWTGyWkujZBzGQfHW1x2-34" value="&lt;span style=&quot;text-align: left; text-wrap: nowrap; background-color: initial; font-size: 4px;&quot;&gt;TDM A/B/C都有对应的时钟线&lt;/span&gt;&lt;span style=&quot;text-align: left; text-wrap: nowrap; background-color: initial; font-size: 4px;&quot;&gt;可配为输入或输出&lt;/span&gt;" style="text;html=1;align=center;verticalAlign=middle;whiteSpace=wrap;rounded=0;" vertex="1" parent="1">
          <mxGeometry x="425" y="250" width="90" height="20" as="geometry" />
        </mxCell>
        <mxCell id="uWTGyWkujZBzGQfHW1x2-41" value="" style="rounded=0;whiteSpace=wrap;html=1;fillColor=#fff2cc;strokeColor=#d6b656;" vertex="1" parent="1">
          <mxGeometry x="190" y="273.75" width="90" height="106.25" as="geometry" />
        </mxCell>
        <mxCell id="uWTGyWkujZBzGQfHW1x2-37" value="MCLK_A" style="rounded=0;whiteSpace=wrap;html=1;fillColor=#ffe6cc;strokeColor=#d79b00;" vertex="1" parent="1">
          <mxGeometry x="205" y="275" width="60" height="25" as="geometry" />
        </mxCell>
        <mxCell id="uWTGyWkujZBzGQfHW1x2-39" value="MCLK_B" style="rounded=0;whiteSpace=wrap;html=1;fillColor=#ffe6cc;strokeColor=#d79b00;" vertex="1" parent="1">
          <mxGeometry x="205" y="300" width="60" height="25" as="geometry" />
        </mxCell>
        <mxCell id="uWTGyWkujZBzGQfHW1x2-42" style="edgeStyle=orthogonalEdgeStyle;rounded=0;orthogonalLoop=1;jettySize=auto;html=1;entryX=0;entryY=0.5;entryDx=0;entryDy=0;" edge="1" parent="1" source="uWTGyWkujZBzGQfHW1x2-40" target="uWTGyWkujZBzGQfHW1x2-7">
          <mxGeometry relative="1" as="geometry" />
        </mxCell>
        <mxCell id="uWTGyWkujZBzGQfHW1x2-40" value="MCLK_VAD" style="rounded=0;whiteSpace=wrap;html=1;fillColor=#ffe6cc;strokeColor=#d79b00;" vertex="1" parent="1">
          <mxGeometry x="200" y="357.5" width="70" height="20" as="geometry" />
        </mxCell>
        <mxCell id="uWTGyWkujZBzGQfHW1x2-44" value="" style="shape=singleArrow;whiteSpace=wrap;html=1;" vertex="1" parent="1">
          <mxGeometry x="265" y="290" width="45" height="20" as="geometry" />
        </mxCell>
        <mxCell id="uWTGyWkujZBzGQfHW1x2-45" value="&lt;div style=&quot;text-align: left;&quot;&gt;&lt;span style=&quot;background-color: initial; text-wrap: nowrap;&quot;&gt;&lt;font style=&quot;font-size: 14px;&quot;&gt;AUDIO&lt;/font&gt;&lt;/span&gt;&lt;/div&gt;" style="text;html=1;align=center;verticalAlign=middle;whiteSpace=wrap;rounded=0;" vertex="1" parent="1">
          <mxGeometry x="235" y="240" width="90" height="20" as="geometry" />
        </mxCell>
      </root>
    </mxGraphModel>
  </diagram>
</mxfile>
